<?xml version="1.0" encoding="utf-8"?>
<svg width="24px" height="20px" viewBox="0 0 24 20" xmlns="http://www.w3.org/2000/svg">
  <title>09477897-E260-4EA8-BAF9-1D451D260200</title>
  <desc>Created with sketchtool.</desc>
  <g id="booking-process" stroke="none" stroke-width="1" fill="none" fill-rule="evenodd">
    <g id="spritesheet-booking" transform="translate(-566.000000, -603.000000)" fill="#D8D8D8">
      <path d="M588.437822,612.258756 L569.435279,612.258756 L577.120294,604.253748 C577.403991,603.958199 577.394362,603.490061 577.099554,603.206364 C576.803264,602.922666 576.334386,602.933036 576.05217,603.227845 L567.163477,612.486899 C567.150144,612.500232 567.140515,612.516528 567.128663,612.530602 C567.111626,612.551342 567.093849,612.571342 567.079035,612.593563 C567.064961,612.614304 567.055331,612.636525 567.04348,612.658006 C567.03311,612.678747 567.021258,612.698006 567.012369,612.719487 C567.001999,612.745412 566.995333,612.771337 566.987925,612.798003 C566.98274,612.817262 566.975333,612.83578 566.97163,612.856521 C566.962,612.901705 566.957556,612.94763 566.957556,612.993555 C566.957556,612.995777 566.956815,612.997258 566.956815,612.99948 C566.956815,613.001703 566.957556,613.003184 566.957556,613.005406 C566.957556,613.051331 566.962,613.097256 566.97163,613.14244 C566.975333,613.16318 566.98274,613.181699 566.987925,613.201698 C566.995333,613.227623 567.001999,613.253549 567.012369,613.279474 C567.021258,613.300955 567.03311,613.320214 567.04348,613.340954 C567.055331,613.362435 567.064961,613.384657 567.079035,613.405397 C567.093849,613.427619 567.111626,613.447619 567.128663,613.468359 C567.140515,613.482433 567.150144,613.498729 567.163477,613.512062 L576.05217,622.771857 C576.197352,622.923705 576.391421,623 576.586232,623 C576.770672,623 576.955853,622.931113 577.099554,622.793338 C577.394362,622.50964 577.403991,622.041503 577.120294,621.745954 L569.435279,613.740205 L588.437822,613.740205 C588.846701,613.740205 589.178546,613.40836 589.178546,612.99948 C589.178546,612.590601 588.846701,612.258756 588.437822,612.258756" id="btn_back" style="fill: rgb(6, 6, 6);"/>
    </g>
  </g>
</svg>