<?xml version="1.0" encoding="UTF-8" standalone="no"?>
<svg width="214px" height="50px" viewBox="0 0 214 50" version="1.1" xmlns="http://www.w3.org/2000/svg" xmlns:xlink="http://www.w3.org/1999/xlink">
    <!-- Generator: sketchtool 41.2 (35397) - http://www.bohemiancoding.com/sketch -->
    <title>139774E0-A676-4832-82D2-288C908D9340</title>
    <desc>Created with sketchtool.</desc>
    <defs></defs>
    <g id="booking-process" stroke="none" stroke-width="1" fill="none" fill-rule="evenodd">
        <g id="spritesheet-booking" transform="translate(-137.000000, -218.000000)">
            <g id="btn_facebook" transform="translate(137.000000, 218.000000)">
                <rect id="Rectangle-4" fill="#3B5997" x="0" y="0" width="214" height="50" rx="3"></rect>
                <path d="M47.5,9.5 L47.5,41.5" id="Line" stroke="#000000" stroke-linecap="square" opacity="0.162604944"></path>
                <path d="M29.4354983,12.7224373 L26.3169867,12.7177228 C22.8138598,12.7177228 20.5493194,15.0526501 20.5493194,18.6658314 L20.5493194,21.4087188 L17.4136096,21.4087188 C17.1437535,21.4087188 16.9239286,21.6284138 16.9239286,21.9009111 L16.9239286,25.8752219 C16.9239286,26.146462 17.1437535,26.3674142 17.4136096,26.3674142 L20.5493194,26.3674142 L20.5493194,36.3944952 C20.5493194,36.6657352 20.7691443,36.8866874 21.0402513,36.8866874 L25.1296822,36.8866874 C25.4007891,36.8866874 25.620614,36.6657352 25.620614,36.3944952 L25.620614,26.3674142 L29.2863426,26.3674142 C29.5574495,26.3674142 29.7763363,26.146462 29.7763363,25.8752219 L29.7785252,21.9009111 C29.7785252,21.7707913 29.7259924,21.6457003 29.6343726,21.5523535 C29.5427528,21.4602639 29.4183001,21.4087188 29.2875934,21.4087188 L25.620614,21.4087188 L25.620614,19.0835348 C25.620614,17.9662019 25.8857797,17.3988922 27.3332469,17.3988922 L29.4342475,17.397635 C29.7053545,17.397635 29.9239286,17.1766828 29.9239286,16.9054427 L29.9239286,13.2162011 C29.9239286,12.9433895 29.7053545,12.7236945 29.4354983,12.7224373 L29.4354983,12.7224373 Z" id="facebook-logo" fill="#FFFFFF"></path>
                <text id="Sign-with-Facebook" font-family="OpenSans, Open Sans" font-size="14" font-weight="normal" fill="#FFFFFF">
                    <tspan x="60.4511719" y="29">Sign with Facebook</tspan>
                </text>
            </g>
        </g>
    </g>
</svg>