<?xml version="1.0" encoding="UTF-8" standalone="no"?>
<svg width="13px" height="16px" viewBox="0 0 13 16" version="1.1" xmlns="http://www.w3.org/2000/svg" xmlns:xlink="http://www.w3.org/1999/xlink">
    <!-- Generator: sketchtool 41.2 (35397) - http://www.bohemiancoding.com/sketch -->
    <title>08DE502F-0176-4424-BB8C-FF2D2AA2D216</title>
    <desc>Created with sketchtool.</desc>
    <defs></defs>
    <g id="booking-process" stroke="none" stroke-width="1" fill="none" fill-rule="evenodd">
        <g id="spritesheet-booking" transform="translate(-463.000000, -567.000000)" fill="#586168">
            <path d="M474,582.999 L465,582.999 C463.896,582.999 463,582.103 463,581 L463,575 C463,573.896 463.896,572.999 465,572.999 L465,572.999 L465,571.5 C465,569.016 467.015,567 469.5,567 C471.985,567 474,569.016 474,571.5 L474,573 C475.104,573 476,573.896 476,575 L476,581 C476,582.104 475.104,582.999 474,582.999 L474,582.999 Z M473,571.5 C473,569.567 471.433,568 469.5,568 C467.567,568 466,569.567 466,571.5 L466,572.999 L473,572.999 L473,571.5 L473,571.5 Z M475,575 C475,574.447 474.552,573.999 474,573.999 L465,573.999 C464.447,573.999 464,574.447 464,575 L464,581 C464,581.552 464.447,581.999 465,581.999 L474,581.999 C474.552,581.999 475,581.552 475,581 L475,575 L475,575 Z M469.5,579.999 C469.224,579.999 469,579.775 469,579.499 L469,576.499 C469,576.224 469.224,576 469.5,576 C469.776,576 470,576.224 470,576.499 L470,579.499 C470,579.775 469.776,579.999 469.5,579.999 L469.5,579.999 Z" id="icon_lock"></path>
        </g>
    </g>
</svg>