<?xml version="1.0" encoding="UTF-8" standalone="no"?>
<svg width="22px" height="20px" viewBox="0 0 22 20" version="1.1" xmlns="http://www.w3.org/2000/svg" xmlns:xlink="http://www.w3.org/1999/xlink">
    <!-- Generator: sketchtool 41.2 (35397) - http://www.bohemiancoding.com/sketch -->
    <title>B6DF5E69-2BF3-4738-A4BA-6DDAC23381BF</title>
    <desc>Created with sketchtool.</desc>
    <defs>
        <polygon id="path-1" points="0.00388235294 20 22 20 22 0 0.00388235294 0"></polygon>
    </defs>
    <g id="booking-process" stroke="none" stroke-width="1" fill="none" fill-rule="evenodd">
        <g id="spritesheet-booking" transform="translate(-240.000000, -603.000000)">
            <g id="icon_cal" transform="translate(240.000000, 603.000000)">
                <g id="Group-3">
                    <mask id="mask-2" fill="white">
                        <use xlink:href="#path-1"></use>
                    </mask>
                    <g id="Clip-2"></g>
                    <path d="M15.1844,1.2987013 L15.1844,0 L13.6314588,0 L13.6314588,1.2987013 L8.36854118,1.2987013 L8.36854118,0 L6.8156,0 L6.8156,1.2987013 L0,1.2987013 L0,20 L22,20 L22,1.2987013 L15.1844,1.2987013 Z M6.8156,2.85714286 L6.8156,4.15584416 L8.36854118,4.15584416 L8.36854118,2.85714286 L13.6314588,2.85714286 L13.6314588,3.8961039 L15.1844,3.8961039 L15.1844,2.85714286 L20.4470588,2.85714286 L20.4470588,5.45454545 L1.55294118,5.45454545 L1.55294118,2.85714286 L6.8156,2.85714286 Z M1.55294118,18.4415584 L20.4470588,18.4415584 L20.4470588,7.01298701 L1.55294118,7.01298701 L1.55294118,18.4415584 Z" id="Fill-1" fill="#FFFFFF" mask="url(#mask-2)"></path>
                </g>
                <polygon id="Fill-4" fill="#FFFFFF" points="5.04705882 16.3636364 7.63529412 16.3636364 7.63529412 13.7662338 5.04705882 13.7662338"></polygon>
                <polygon id="Fill-5" fill="#FFFFFF" points="9.70588235 16.3636364 12.2941176 16.3636364 12.2941176 13.7662338 9.70588235 13.7662338"></polygon>
                <polygon id="Fill-6" fill="#FFFFFF" points="14.3647059 16.3636364 16.9529412 16.3636364 16.9529412 13.7662338 14.3647059 13.7662338"></polygon>
                <polygon id="Fill-7" fill="#FFFFFF" points="9.70588235 11.6883117 12.2941176 11.6883117 12.2941176 9.09090909 9.70588235 9.09090909"></polygon>
                <polygon id="Fill-8" fill="#FFFFFF" points="14.3647059 11.6883117 16.9529412 11.6883117 16.9529412 9.09090909 14.3647059 9.09090909"></polygon>
                <polygon id="Fill-9" fill="#FFFFFF" points="5.04705882 11.6883117 7.63529412 11.6883117 7.63529412 9.09090909 5.04705882 9.09090909"></polygon>
            </g>
        </g>
    </g>
</svg>