<?xml version="1.0" encoding="UTF-8" standalone="no"?>
<svg width="19px" height="14px" viewBox="0 0 19 14" version="1.1" xmlns="http://www.w3.org/2000/svg" xmlns:xlink="http://www.w3.org/1999/xlink">
    <!-- Generator: sketchtool 41.2 (35397) - http://www.bohemiancoding.com/sketch -->
    <title>055BADD0-C9D5-4CC2-BDD1-028F966452C9</title>
    <desc>Created with sketchtool.</desc>
    <defs></defs>
    <g id="booking-process" stroke="none" stroke-width="1" fill="none" fill-rule="evenodd">
        <g id="spritesheet-booking" transform="translate(-408.000000, -604.000000)" fill="#D8D8D8">
            <path d="M412,604 L427,604 L427,606 L412,606 L412,604 Z M408,604 L410,604 L410,606 L408,606 L408,604 Z M412,610 L427,610 L427,612 L412,612 L412,610 Z M408,610 L410,610 L410,612 L408,612 L408,610 Z M412,616 L427,616 L427,618 L412,618 L412,616 Z M408,616 L410,616 L410,618 L408,618 L408,616 Z" id="icon_list"></path>
        </g>
    </g>
</svg>