<?xml version="1.0" encoding="UTF-8" standalone="no"?>
<svg width="15px" height="16px" viewBox="0 0 15 16" version="1.1" xmlns="http://www.w3.org/2000/svg" xmlns:xlink="http://www.w3.org/1999/xlink">
    <!-- Generator: sketchtool 41.2 (35397) - http://www.bohemiancoding.com/sketch -->
    <title>3E9C6177-5C09-4686-A67A-0D7EB929D66C</title>
    <desc>Created with sketchtool.</desc>
    <defs></defs>
    <g id="booking-process" stroke="none" stroke-width="1" fill="none" fill-rule="evenodd">
        <g id="spritesheet-booking" transform="translate(-409.000000, -566.000000)" fill="#586168">
            <path d="M423,582 L410,582 C409.447,582 409,581.553 409,581 L409,571.001 L409,570 L409,568 C409,567.448 409.447,567 410,567 L413,567 L413,566 L414,566 L414,567 L419,567 L419,566 L420,566 L420,567 L423.5,567 C424.052,567 424,567.448 424,568 L424,570 L424,571.001 L424,581 C424,581.553 423.552,582 423,582 L423,582 Z M423,568.501 C423,568.225 422.776,568 422.5,568 L420,568 L420,569.001 L419,569.001 L419,568 L414,568 L414,569.001 L413,569.001 L413,568 L410.5,568 C410.224,568 410,568.225 410,568.501 L410,570 L423,570 L423,568.501 L423,568.501 Z M423,571.001 L410,571.001 L410,580.5 C410,580.777 410.224,581 410.5,581 L422.5,581 C422.776,581 423,580.777 423,580.5 L423,571.001 L423,571.001 Z M419,577 L422,577 L422,580 L419,580 L419,577 L419,577 Z M420,579.001 L421,579.001 L421,578 L420,578 L420,579.001 L420,579.001 Z M419,573 L422,573 L422,576 L419,576 L419,573 L419,573 Z M420,575 L421,575 L421,574 L420,574 L420,575 L420,575 Z M415,577 L418,577 L418,580 L415,580 L415,577 L415,577 Z M416,579.001 L417,579.001 L417,578 L416,578 L416,579.001 L416,579.001 Z M415,573 L418,573 L418,576 L415,576 L415,573 L415,573 Z M416,575 L417,575 L417,574 L416,574 L416,575 L416,575 Z M411,577 L414,577 L414,580 L411,580 L411,577 L411,577 Z M412,579.001 L413,579.001 L413,578 L412,578 L412,579.001 L412,579.001 Z M411,573 L414,573 L414,576 L411,576 L411,573 L411,573 Z M412,575 L413,575 L413,574 L412,574 L412,575 L412,575 Z" id="icon_cal"></path>
        </g>
    </g>
</svg>