<?xml version="1.0" encoding="UTF-8" standalone="no"?>
<svg width="13px" height="23px" viewBox="0 0 13 23" version="1.1" xmlns="http://www.w3.org/2000/svg" xmlns:xlink="http://www.w3.org/1999/xlink">
    <!-- Generator: sketchtool 41.2 (35397) - http://www.bohemiancoding.com/sketch -->
    <title>A6FA7654-D97B-4DC1-9730-4D6E8CB90188</title>
    <desc>Created with sketchtool.</desc>
    <defs></defs>
    <g id="booking-process" stroke="none" stroke-width="1" fill="none" fill-rule="evenodd">
        <g id="spritesheet-booking" transform="translate(-453.000000, -600.000000)" fill="#DBD9D7">
            <path d="M459.5,603.365854 C461.292375,603.365854 462.75,604.875439 462.75,606.731707 C462.75,608.587976 461.292375,610.097561 459.5,610.097561 C457.707625,610.097561 456.25,608.587976 456.25,606.731707 C456.25,604.875439 457.707625,603.365854 459.5,603.365854 M458.958333,620.756098 L458.958333,622.439024 C458.958333,622.748683 459.200458,623 459.5,623 C459.799542,623 460.041667,622.748683 460.041667,622.439024 L460.041667,620.756098 C460.041667,619.238659 461.512292,616.885927 462.934167,614.609488 C464.510958,612.085659 466,609.702073 466,607.853659 C466,602.642195 463.813292,600 459.5,600 C455.186708,600 453,602.642195 453,607.853659 C453,609.702073 454.489042,612.085659 456.065833,614.609488 C457.487708,616.885927 458.958333,619.238659 458.958333,620.756098" id="icon_nearest"></path>
        </g>
    </g>
</svg>