<?xml version="1.0" encoding="utf-8"?>
<!-- Generator: Adobe Illustrator 19.0.0, SVG Export Plug-In . SVG Version: 6.00 Build 0)  -->
<svg version="1.1" id="Layer_1" xmlns="http://www.w3.org/2000/svg" xmlns:xlink="http://www.w3.org/1999/xlink" x="0px" y="0px"
	 viewBox="0 0 300 170" style="enable-background:new 0 0 300 170;" xml:space="preserve">
<style type="text/css">
	.st0{fill:url(#XMLID_81_);}
	.st1{fill:#FFFFFF;}
	.st2{fill:#00AEEF;}
	.st3{fill:#939598;}
	.st4{fill:url(#XMLID_82_);}
</style>
<g id="XMLID_1_">
	<g id="XMLID_18_">
		<linearGradient id="XMLID_81_" gradientUnits="userSpaceOnUse" x1="-219.0228" y1="45.4799" x2="-63.4763" y2="122.68">
			<stop  offset="0" style="stop-color:#21409A"/>
			<stop  offset="1" style="stop-color:#00AEEF"/>
		</linearGradient>
		<path id="XMLID_14_" class="st0" d="M-178.4,12.4c-54,0-90.5,53.3-90.5,53.3l0,0c0,0,36.4,53.3,90.5,53.3
			c54,0,90.5-53.3,90.5-53.3l0,0C-88,65.6-124.4,12.4-178.4,12.4z"/>
		<g id="XMLID_30_">
			<path id="XMLID_39_" class="st1" d="M-226.6,56.4v-3.2c0-2.7-2.2-4.8-4.8-4.8c-2.7,0-4.8,2.2-4.8,4.8c0,1.2,0,1.2,0.3,1.6
				l13.2,17.5c2.3,3,2.3,3,2.3,6.1c0,6-4.9,10.9-10.9,10.9c-6,0-10.9-4.9-10.9-10.9v-3.2c0-0.9,0.7-1.5,1.5-1.5h3
				c0.9,0,1.5,0.7,1.5,1.5v3.2c0,2.7,2.2,4.8,4.8,4.8c2.7,0,4.8-2.2,4.8-4.8c0-1.2,0-1.2-0.3-1.6l-13.2-17.5c-2.3-3-2.3-3-2.3-6.1
				c0-6,4.9-10.9,10.9-10.9c6,0,10.9,4.9,10.9,10.9v3.2c0,0.9-0.7,1.5-1.5,1.5h-3C-226,58-226.6,57.3-226.6,56.4z"/>
			<path id="XMLID_37_" class="st1" d="M-177.7,53.2v34.6c0,0.8-0.7,1.5-1.5,1.5h-3c-0.9,0-1.5-0.8-1.5-1.5V53.2
				c0-2.7-2.2-4.8-4.9-4.8c-2.7,0-4.8,2.2-4.8,4.8v34.6c0,0.8-0.7,1.5-1.5,1.5h-3c-0.9,0-1.5-0.8-1.5-1.5V53.2
				c0-2.7-2.2-4.8-4.8-4.8c-2.8,0-4.9,2.2-4.9,4.8v34.6c0,0.8-0.7,1.5-1.5,1.5h-3c-0.8,0-1.5-0.8-1.5-1.5V53.2c0-6,4.9-10.9,11-10.9
				c3,0,5.9,1.3,7.9,3.4c2-2.1,4.8-3.4,7.9-3.4C-182.6,42.3-177.7,47.2-177.7,53.2z"/>
			<path id="XMLID_35_" class="st1" d="M-163.7,87.8c0,0.9-0.7,1.5-1.5,1.5h-3c-0.9,0-1.5-0.7-1.5-1.5v-44c0-0.9,0.7-1.5,1.5-1.5h3
				c0.8,0,1.5,0.7,1.5,1.5V87.8z"/>
			<path id="XMLID_33_" class="st1" d="M-140,84.8v3c0,0.8-0.7,1.5-1.5,1.5h-11.2c-1.7,0-3-1.4-3-3V43.8c0-0.9,0.7-1.5,1.5-1.5h3
				c0.8,0,1.5,0.7,1.5,1.5v39.4h8.2C-140.7,83.2-140,83.9-140,84.8z"/>
			<path id="XMLID_31_" class="st1" d="M-130.8,48.4v14.4h8.3c0.9,0,1.5,0.7,1.5,1.5v3c0,0.9-0.7,1.5-1.5,1.5h-8.3v14.4h8.3
				c0.9,0,1.5,0.7,1.5,1.5v3c0,0.9-0.7,1.5-1.5,1.5h-11.3c-1.7,0-3-1.4-3-3v-41c0-1.7,1.3-3,3-3h11.3c0.9,0,1.5,0.7,1.5,1.5v3
				c0,0.9-0.7,1.5-1.5,1.5H-130.8z"/>
		</g>
		<g id="XMLID_19_">
			<path id="XMLID_27_" class="st2" d="M-348.1,53.2v4.6c0,6.1-4.9,11-10.9,11h-4.9v19c0,0.8-0.7,1.5-1.5,1.5h-3
				c-0.8,0-1.5-0.8-1.5-1.5v-19v-6.1V43.8c0-0.9,0.8-1.5,1.5-1.5h9.5C-353,42.3-348.1,47.2-348.1,53.2z M-354.2,53.2
				c0-2.7-2.2-4.8-4.8-4.8h-4.9v14.4h4.9c2.7,0,4.8-2.2,4.8-4.9V53.2z"/>
			<path id="XMLID_25_" class="st2" d="M-321.5,43.8v34.5c0,6.1-4.9,11-10.9,11c-6.1,0-11-4.9-11-11V43.8c0-0.9,0.8-1.5,1.5-1.5h3
				c0.9,0,1.5,0.7,1.5,1.5v34.5c0,2.8,2.2,4.9,4.9,4.9c2.7,0,4.8-2.2,4.8-4.9V43.8c0-0.9,0.7-1.5,1.5-1.5h3
				C-322.1,42.3-321.5,42.9-321.5,43.8z"/>
			<path id="XMLID_22_" class="st2" d="M-292.2,57.8c0,3.1-1.2,6-3.3,8c2.1,2,3.3,4.8,3.3,7.9v14.2c0,0.8-0.7,1.5-1.5,1.5h-3
				c-0.9,0-1.5-0.8-1.5-1.5V73.6c0-2.7-2.2-4.8-4.8-4.8h-4.8v19c0,0.8-0.8,1.5-1.5,1.5h-3c-0.9,0-1.5-0.8-1.5-1.5V45.3
				c0-1.7,1.3-3,3-3h7.9c6.1,0,10.9,4.9,10.9,10.9V57.8z M-298.3,53.2c0-2.7-2.2-4.8-4.8-4.8h-4.8v14.4h4.8c2.7,0,4.8-2.2,4.8-4.9
				V53.2z"/>
			<path id="XMLID_20_" class="st2" d="M-279,48.4v14.4h8.3c0.9,0,1.5,0.7,1.5,1.5v3c0,0.9-0.7,1.5-1.5,1.5h-8.3v14.4h8.3
				c0.9,0,1.5,0.7,1.5,1.5v3c0,0.9-0.7,1.5-1.5,1.5h-11.3c-1.7,0-3-1.4-3-3v-41c0-1.7,1.3-3,3-3h11.3c0.9,0,1.5,0.7,1.5,1.5v3
				c0,0.9-0.7,1.5-1.5,1.5H-279z"/>
		</g>
	</g>
	<g id="XMLID_2_">
		<path id="XMLID_3_" class="st3" d="M-364.6,147.1c1.5,0,2.6,0.5,3.6,1.4c0.1,0.1,0.1,0.3,0,0.4l-1.1,1.2c-0.1,0.1-0.3,0.1-0.4,0
			c-0.5-0.5-1.3-0.7-2-0.7c-1.7,0-2.9,1.4-2.9,3c0,1.6,1.2,3,2.9,3c0.7,0,1.4-0.2,2-0.7c0.1-0.1,0.3-0.1,0.4,0l1.1,1.2
			c0.1,0.1,0.1,0.3,0,0.4c-1,1-2.3,1.4-3.6,1.4c-2.9,0-5.3-2.3-5.3-5.3C-369.9,149.4-367.5,147.1-364.6,147.1z"/>
		<path id="XMLID_21_" class="st3" d="M-348.6,147.1c2.9,0,5.3,2.4,5.3,5.3c0,2.9-2.4,5.3-5.3,5.3s-5.3-2.3-5.3-5.3
			C-353.9,149.4-351.6,147.1-348.6,147.1z M-348.6,155.3c1.6,0,2.9-1.3,2.9-2.9c0-1.6-1.3-3-2.9-3c-1.6,0-2.9,1.3-2.9,3
			C-351.5,154-350.2,155.3-348.6,155.3z"/>
		<path id="XMLID_26_" class="st3" d="M-336,156.1l0.7-1.2c0.1-0.2,0.4-0.2,0.5-0.1c0.1,0,1.1,0.8,2.1,0.8c0.6,0,1-0.4,1-0.9
			c0-0.6-0.5-1.1-1.5-1.5c-1.3-0.5-2.9-1.5-2.9-3.2c0-1.5,1.1-2.9,3.4-2.9c1.5,0,2.7,0.8,3.1,1.1c0.2,0.1,0.1,0.4,0.1,0.5l-0.7,1.1
			c-0.1,0.2-0.4,0.3-0.5,0.2c-0.1-0.1-1.2-0.9-2.1-0.9c-0.5,0-0.9,0.4-0.9,0.8c0,0.5,0.4,1,1.6,1.4c1.1,0.5,3,1.4,3,3.4
			c0,1.5-1.3,3-3.5,3c-1.9,0-3-0.8-3.3-1.1C-336,156.4-336.1,156.3-336,156.1z"/>
		<path id="XMLID_29_" class="st3" d="M-320.1,147.3c0-0.1,0.1-0.2,0.3-0.2h0.2c0.1,0,0.2,0.1,0.2,0.1l3.4,6.3h0l3.4-6.3
			c0-0.1,0.2-0.1,0.2-0.1h0.2c0.1,0,0.2,0.1,0.3,0.2l1.7,9.9c0,0.2-0.1,0.3-0.3,0.3h-1.7c-0.1,0-0.3-0.1-0.3-0.2l-0.7-4.5h0
			l-2.5,4.8c0,0.1-0.2,0.2-0.2,0.2h-0.3c-0.1,0-0.2-0.1-0.2-0.2l-2.5-4.8h0l-0.6,4.5c0,0.1-0.1,0.2-0.3,0.2h-1.7
			c-0.2,0-0.3-0.1-0.3-0.3L-320.1,147.3z"/>
		<path id="XMLID_34_" class="st3" d="M-302.1,147.5c0-0.1,0.1-0.3,0.3-0.3h6.1c0.2,0,0.3,0.1,0.3,0.3v1.6c0,0.1-0.1,0.3-0.3,0.3
			h-4.1v1.8h3.4c0.1,0,0.3,0.1,0.3,0.3v1.6c0,0.2-0.1,0.3-0.3,0.3h-3.4v2h4.1c0.2,0,0.3,0.1,0.3,0.3v1.6c0,0.1-0.1,0.3-0.3,0.3h-6.1
			c-0.2,0-0.3-0.1-0.3-0.3V147.5z"/>
		<path id="XMLID_38_" class="st3" d="M-286,149.4h-2.1c-0.2,0-0.3-0.1-0.3-0.3v-1.6c0-0.1,0.1-0.3,0.3-0.3h6.5
			c0.2,0,0.3,0.1,0.3,0.3v1.6c0,0.1-0.1,0.3-0.3,0.3h-2.1v7.8c0,0.1-0.1,0.3-0.3,0.3h-1.8c-0.1,0-0.3-0.1-0.3-0.3V149.4z"/>
		<path id="XMLID_41_" class="st3" d="M-273.6,147.5c0-0.1,0.1-0.3,0.3-0.3h1.8c0.1,0,0.3,0.1,0.3,0.3v9.7c0,0.1-0.1,0.3-0.3,0.3
			h-1.8c-0.1,0-0.3-0.1-0.3-0.3V147.5z"/>
		<path id="XMLID_43_" class="st3" d="M-258.1,147.1c1.5,0,2.6,0.5,3.6,1.4c0.1,0.1,0.1,0.3,0,0.4l-1.1,1.2c-0.1,0.1-0.3,0.1-0.4,0
			c-0.5-0.5-1.3-0.7-2-0.7c-1.7,0-2.9,1.4-2.9,3c0,1.6,1.2,3,2.9,3c0.7,0,1.4-0.2,2-0.7c0.1-0.1,0.3-0.1,0.4,0l1.1,1.2
			c0.1,0.1,0.1,0.3,0,0.4c-1,1-2.3,1.4-3.6,1.4c-2.9,0-5.3-2.3-5.3-5.3C-263.4,149.4-261,147.1-258.1,147.1z"/>
		<path id="XMLID_45_" class="st3" d="M-235.8,149.4h-2.1c-0.2,0-0.3-0.1-0.3-0.3v-1.6c0-0.1,0.1-0.3,0.3-0.3h6.5
			c0.2,0,0.3,0.1,0.3,0.3v1.6c0,0.1-0.1,0.3-0.3,0.3h-2.1v7.8c0,0.1-0.1,0.3-0.3,0.3h-1.8c-0.1,0-0.3-0.1-0.3-0.3V149.4z"/>
		<path id="XMLID_47_" class="st3" d="M-223.5,147.5c0-0.1,0.1-0.3,0.3-0.3h4.4c1.8,0,3.2,1.4,3.2,3.2c0,1.4-0.9,2.4-2.2,3l2,3.7
			c0.1,0.2,0,0.4-0.2,0.4h-2c-0.1,0-0.2-0.1-0.2-0.1l-2-3.9h-1v3.7c0,0.1-0.1,0.3-0.3,0.3h-1.7c-0.2,0-0.3-0.1-0.3-0.3V147.5z
			 M-219,151.6c0.6,0,1.1-0.6,1.1-1.2s-0.5-1.1-1.1-1.1h-2.2v2.3H-219z"/>
		<path id="XMLID_50_" class="st3" d="M-207.5,147.5c0-0.1,0.1-0.3,0.3-0.3h6.1c0.2,0,0.3,0.1,0.3,0.3v1.6c0,0.1-0.1,0.3-0.3,0.3
			h-4.1v1.8h3.4c0.1,0,0.3,0.1,0.3,0.3v1.6c0,0.2-0.1,0.3-0.3,0.3h-3.4v2h4.1c0.2,0,0.3,0.1,0.3,0.3v1.6c0,0.1-0.1,0.3-0.3,0.3h-6.1
			c-0.2,0-0.3-0.1-0.3-0.3V147.5z"/>
		<path id="XMLID_52_" class="st3" d="M-194,157.1l4.6-9.9c0-0.1,0.1-0.2,0.2-0.2h0.1c0.1,0,0.2,0.1,0.2,0.2l4.6,9.9
			c0.1,0.2,0,0.4-0.2,0.4h-1.6c-0.3,0-0.4-0.1-0.5-0.4l-0.5-1.2h-4l-0.5,1.2c-0.1,0.2-0.2,0.4-0.5,0.4h-1.6
			C-194,157.5-194.1,157.3-194,157.1z M-188,154l-1.1-2.4h0l-1.1,2.4H-188z"/>
		<path id="XMLID_55_" class="st3" d="M-176,149.4h-2.1c-0.2,0-0.3-0.1-0.3-0.3v-1.6c0-0.1,0.1-0.3,0.3-0.3h6.5
			c0.2,0,0.3,0.1,0.3,0.3v1.6c0,0.1-0.1,0.3-0.3,0.3h-2.1v7.8c0,0.1-0.1,0.3-0.3,0.3h-1.8c-0.1,0-0.3-0.1-0.3-0.3V149.4z"/>
		<path id="XMLID_57_" class="st3" d="M-162.8,147.3c0-0.1,0.1-0.2,0.3-0.2h0.2c0.1,0,0.2,0.1,0.2,0.1l3.4,6.3h0l3.4-6.3
			c0-0.1,0.2-0.1,0.2-0.1h0.2c0.1,0,0.2,0.1,0.3,0.2l1.7,9.9c0,0.2-0.1,0.3-0.3,0.3h-1.7c-0.1,0-0.3-0.1-0.3-0.2l-0.7-4.5h0
			l-2.5,4.8c0,0.1-0.2,0.2-0.2,0.2h-0.3c-0.1,0-0.2-0.1-0.2-0.2l-2.5-4.8h0l-0.6,4.5c0,0.1-0.1,0.2-0.3,0.2h-1.7
			c-0.2,0-0.3-0.1-0.3-0.3L-162.8,147.3z"/>
		<path id="XMLID_59_" class="st3" d="M-144.7,147.5c0-0.1,0.1-0.3,0.3-0.3h6.1c0.2,0,0.3,0.1,0.3,0.3v1.6c0,0.1-0.1,0.3-0.3,0.3
			h-4.1v1.8h3.4c0.1,0,0.3,0.1,0.3,0.3v1.6c0,0.2-0.1,0.3-0.3,0.3h-3.4v2h4.1c0.2,0,0.3,0.1,0.3,0.3v1.6c0,0.1-0.1,0.3-0.3,0.3h-6.1
			c-0.2,0-0.3-0.1-0.3-0.3V147.5z"/>
		<path id="XMLID_61_" class="st3" d="M-129.9,147.3c0-0.1,0.1-0.3,0.3-0.3h0.4l5.9,5.6h0v-5.2c0-0.1,0.1-0.3,0.3-0.3h1.8
			c0.1,0,0.3,0.1,0.3,0.3v9.9c0,0.1-0.1,0.3-0.3,0.3h-0.2c0,0-0.2,0-0.2-0.1l-5.8-5.8h0v5.5c0,0.1-0.1,0.3-0.3,0.3h-1.7
			c-0.1,0-0.3-0.1-0.3-0.3L-129.9,147.3z"/>
		<path id="XMLID_63_" class="st3" d="M-111.1,149.4h-2.1c-0.2,0-0.3-0.1-0.3-0.3v-1.6c0-0.1,0.1-0.3,0.3-0.3h6.5
			c0.2,0,0.3,0.1,0.3,0.3v1.6c0,0.1-0.1,0.3-0.3,0.3h-2.1v7.8c0,0.1-0.1,0.3-0.3,0.3h-1.8c-0.1,0-0.3-0.1-0.3-0.3V149.4z"/>
		<path id="XMLID_65_" class="st3" d="M-99.3,156.1l0.7-1.2c0.1-0.2,0.4-0.2,0.5-0.1c0.1,0,1.1,0.8,2.1,0.8c0.6,0,1-0.4,1-0.9
			c0-0.6-0.5-1.1-1.5-1.5c-1.3-0.5-2.9-1.5-2.9-3.2c0-1.5,1.1-2.9,3.4-2.9c1.5,0,2.7,0.8,3.1,1.1c0.2,0.1,0.1,0.4,0.1,0.5l-0.7,1.1
			c-0.1,0.2-0.4,0.3-0.5,0.2c-0.1-0.1-1.2-0.9-2.1-0.9c-0.5,0-0.9,0.4-0.9,0.8c0,0.5,0.4,1,1.6,1.4c1.1,0.5,3,1.4,3,3.4
			c0,1.5-1.3,3-3.5,3c-1.9,0-3-0.8-3.3-1.1C-99.4,156.4-99.4,156.3-99.3,156.1z"/>
	</g>
</g>
<g id="XMLID_67_">
	<g id="XMLID_108_">
		<linearGradient id="XMLID_82_" gradientUnits="userSpaceOnUse" x1="159.9772" y1="64.854" x2="315.5237" y2="142.054">
			<stop  offset="0" style="stop-color:#21409A"/>
			<stop  offset="1" style="stop-color:#00AEEF"/>
		</linearGradient>
		<path id="XMLID_131_" class="st4" d="M200.6,31.7c-54,0-90.5,53.3-90.5,53.3l0,0c0,0,36.4,53.3,90.5,53.3
			c54,0,90.5-53.3,90.5-53.3l0,0C291,85,254.6,31.7,200.6,31.7z"/>
		<g id="XMLID_120_">
			<path id="XMLID_129_" class="st1" d="M152.4,75.8v-3.2c0-2.7-2.2-4.8-4.8-4.8c-2.7,0-4.8,2.2-4.8,4.8c0,1.2,0,1.2,0.3,1.6
				l13.2,17.5c2.3,3,2.3,3,2.3,6.1c0,6-4.9,10.9-10.9,10.9c-6,0-10.9-4.9-10.9-10.9v-3.2c0-0.9,0.7-1.5,1.5-1.5h3
				c0.9,0,1.5,0.7,1.5,1.5v3.2c0,2.7,2.2,4.8,4.8,4.8c2.7,0,4.8-2.2,4.8-4.8c0-1.2,0-1.2-0.3-1.6l-13.2-17.5c-2.3-3-2.3-3-2.3-6.1
				c0-6,4.9-10.9,10.9-10.9c6,0,10.9,4.9,10.9,10.9v3.2c0,0.9-0.7,1.5-1.5,1.5h-3C153,77.3,152.4,76.7,152.4,75.8z"/>
			<path id="XMLID_127_" class="st1" d="M201.3,72.6v34.6c0,0.8-0.7,1.5-1.5,1.5h-3c-0.9,0-1.5-0.8-1.5-1.5V72.6
				c0-2.7-2.2-4.8-4.9-4.8c-2.7,0-4.8,2.2-4.8,4.8v34.6c0,0.8-0.7,1.5-1.5,1.5h-3c-0.9,0-1.5-0.8-1.5-1.5V72.6
				c0-2.7-2.2-4.8-4.8-4.8c-2.8,0-4.9,2.2-4.9,4.8v34.6c0,0.8-0.7,1.5-1.5,1.5h-3c-0.8,0-1.5-0.8-1.5-1.5V72.6c0-6,4.9-10.9,11-10.9
				c3,0,5.9,1.3,7.9,3.4c2-2.1,4.8-3.4,7.9-3.4C196.4,61.6,201.3,66.6,201.3,72.6z"/>
			<path id="XMLID_125_" class="st1" d="M215.3,107.2c0,0.9-0.7,1.5-1.5,1.5h-3c-0.9,0-1.5-0.7-1.5-1.5v-44c0-0.9,0.7-1.5,1.5-1.5h3
				c0.8,0,1.5,0.7,1.5,1.5V107.2z"/>
			<path id="XMLID_123_" class="st1" d="M239,104.1v3c0,0.8-0.7,1.5-1.5,1.5h-11.2c-1.7,0-3-1.4-3-3V63.2c0-0.9,0.7-1.5,1.5-1.5h3
				c0.8,0,1.5,0.7,1.5,1.5v39.4h8.2C238.3,102.6,239,103.3,239,104.1z"/>
			<path id="XMLID_121_" class="st1" d="M248.2,67.7v14.4h8.3c0.9,0,1.5,0.7,1.5,1.5v3c0,0.9-0.7,1.5-1.5,1.5h-8.3v14.4h8.3
				c0.9,0,1.5,0.7,1.5,1.5v3c0,0.9-0.7,1.5-1.5,1.5h-11.3c-1.7,0-3-1.4-3-3v-41c0-1.7,1.3-3,3-3h11.3c0.9,0,1.5,0.7,1.5,1.5v3
				c0,0.9-0.7,1.5-1.5,1.5H248.2z"/>
		</g>
		<g id="XMLID_109_">
			<path id="XMLID_117_" class="st2" d="M30.9,72.6v4.6c0,6.1-4.9,11-10.9,11h-4.9v19c0,0.8-0.7,1.5-1.5,1.5h-3
				c-0.8,0-1.5-0.8-1.5-1.5v-19v-6.1V63.2c0-0.9,0.8-1.5,1.5-1.5H20C26,61.6,30.9,66.6,30.9,72.6z M24.8,72.6c0-2.7-2.2-4.8-4.8-4.8
				h-4.9v14.4H20c2.7,0,4.8-2.2,4.8-4.9V72.6z"/>
			<path id="XMLID_115_" class="st2" d="M57.5,63.2v34.5c0,6.1-4.9,11-10.9,11c-6.1,0-11-4.9-11-11V63.2c0-0.9,0.8-1.5,1.5-1.5h3
				c0.9,0,1.5,0.7,1.5,1.5v34.5c0,2.8,2.2,4.9,4.9,4.9c2.7,0,4.8-2.2,4.8-4.9V63.2c0-0.9,0.7-1.5,1.5-1.5h3
				C56.9,61.6,57.5,62.3,57.5,63.2z"/>
			<path id="XMLID_112_" class="st2" d="M86.8,77.1c0,3.1-1.2,6-3.3,8c2.1,2,3.3,4.8,3.3,7.9v14.2c0,0.8-0.7,1.5-1.5,1.5h-3
				c-0.9,0-1.5-0.8-1.5-1.5V93c0-2.7-2.2-4.8-4.8-4.8H71v19c0,0.8-0.8,1.5-1.5,1.5h-3c-0.9,0-1.5-0.8-1.5-1.5V64.7c0-1.7,1.3-3,3-3
				h7.9c6.1,0,10.9,4.9,10.9,10.9V77.1z M80.7,72.6c0-2.7-2.2-4.8-4.8-4.8H71v14.4h4.8c2.7,0,4.8-2.2,4.8-4.9V72.6z"/>
			<path id="XMLID_110_" class="st2" d="M100,67.7v14.4h8.3c0.9,0,1.5,0.7,1.5,1.5v3c0,0.9-0.7,1.5-1.5,1.5H100v14.4h8.3
				c0.9,0,1.5,0.7,1.5,1.5v3c0,0.9-0.7,1.5-1.5,1.5H96.9c-1.7,0-3-1.4-3-3v-41c0-1.7,1.3-3,3-3h11.3c0.9,0,1.5,0.7,1.5,1.5v3
				c0,0.9-0.7,1.5-1.5,1.5H100z"/>
		</g>
	</g>
</g>
</svg>
