<?xml version="1.0" encoding="utf-8"?>
<!-- Generator: Adobe Illustrator 18.0.0, SVG Export Plug-In . SVG Version: 6.00 Build 0)  -->
<!DOCTYPE svg PUBLIC "-//W3C//DTD SVG 1.1//EN" "http://www.w3.org/Graphics/SVG/1.1/DTD/svg11.dtd">
<svg version="1.1" id="Layer_1_xA0_Image_1_" xmlns="http://www.w3.org/2000/svg" xmlns:xlink="http://www.w3.org/1999/xlink"
	 x="0px" y="0px" viewBox="0 0 360 204" enable-background="new 0 0 360 204" xml:space="preserve">
<g>
	<g>
		<path fill="#00AEEF" d="M140.3,22.1c-3.4,0-6,0-7,0h-0.9h-3.6c-1,0-1.8,0.8-1.8,1.8v46.9c0,0.7,0.5,1.2,1.2,1.2h3.9
			c0.7,0,1.2-0.5,1.2-1.2V49.6c0.9,0,3.6,0,7,0c6.2,0,9.9-6.9,9.9-10.1c0-0.9,0-4.6,0-4.6s0-1.8,0-2.7
			C150.1,29,146.5,22.1,140.3,22.1z M143.8,34.9v4.2c0,4.5-4,4.9-4,4.9h-6.5V27.6h6.5c0,0,4,0.4,4,4.9V34.9z"/>
		<path fill="#00AEEF" d="M199.5,22.8c-3.4,0-6,0-7,0h-0.9h-3.6c-1,0-1.8,0.8-1.8,1.8v46.9c0,0.7,0.5,1.2,1.2,1.2h3.9
			c0.7,0,1.2-0.5,1.2-1.2V50.3c0.8,0,3.2,0,6.1,0c0,0,3.9,0.2,3.9,5.2v15c0,0.8,0.7,1.5,1.5,1.5h3.9c0.8,0,1.5-0.7,1.5-1.5V54.1
			c0,0-0.4-4.3-3.3-6.8c2.1-2.2,3.3-5.2,3.3-7c0-0.9,0-4.6,0-4.6s0-1.8,0-2.7C209.4,29.7,205.7,22.8,199.5,22.8z M192.6,44.7V28.3
			h6.5c0,0,4,0.4,4,4.9v2.4v4.2c0,4.5-4,4.9-4,4.9H192.6z"/>
		<path fill="#00AEEF" d="M176.7,22.1h-3.2c-1,0-1.8,0.8-1.8,1.8v35.4v0.4c0,1.2-0.3,2.3-1,3.3c-0.8,1.2-2.1,2.5-4,2.5
			c-1.8,0-3.1-1.2-3.9-2.3c-0.7-1-1.1-2.2-1.1-3.5v-0.3V23.9c0-1-0.8-1.8-1.8-1.8h-3.2c-1,0-1.8,0.8-1.8,1.8v35.4
			c0,12.4,11.8,12.7,11.8,12.7s11.8-0.2,11.8-12.7V23.9C178.5,22.9,177.7,22.1,176.7,22.1z"/>
		<path fill="#00AEEF" d="M232.1,65.5h-8.9V50.3l8.8-0.2c0.5,0,1-0.5,1-1v-3.4c0-0.6-0.4-1-1-1h-8.8V28.3h8.6c0.7,0,1.2-0.6,1.2-1.2
			l0-3.1c0-0.7-0.6-1.2-1.2-1.2h-13.1c-1,0-1.8,0.8-1.8,1.8v46.2c0,0.7,0.5,1.2,1.2,1.2h3.2h0.6h10.1c0.5,0,0.9-0.4,0.9-0.9v-4.7
			C233,65.9,232.6,65.5,232.1,65.5z"/>
	</g>
</g>
<g>
	<linearGradient id="SVGID_1_" gradientUnits="userSpaceOnUse" x1="84.4645" y1="135.8687" x2="275.5355" y2="135.8687">
		<stop  offset="0" style="stop-color:#23439B"/>
		<stop  offset="1" style="stop-color:#008DD3"/>
	</linearGradient>
	<path fill="url(#SVGID_1_)" d="M180,79.9c-59.1,0-95.5,56-95.5,56s36.4,56,95.5,56s95.5-56,95.5-56S239.1,79.9,180,79.9z"/>
	<g>
		<path fill="#FFFFFF" d="M242.6,154.6h-8.9v-15.2l8.8-0.2c0.5,0,1-0.5,1-1v-3.4c0-0.6-0.4-1-1-1h-8.8v-16.4h8.6
			c0.7,0,1.2-0.6,1.2-1.2l0-3.1c0-0.7-0.6-1.2-1.2-1.2h-13.1c-1,0-1.8,0.8-1.8,1.8v46.2c0,0.7,0.5,1.2,1.2,1.2h3.2h0.6h10.1
			c0.5,0,0.9-0.4,0.9-0.9v-4.7C243.5,155,243.1,154.6,242.6,154.6z"/>
		<path fill="#FFFFFF" d="M222.9,154.6H214v-15.2v-5.6v-19.9c0-1.1-0.9-2-2-2h-2.5c-1,0-1.8,0.8-1.8,1.8v46.2c0,0.7,0.5,1.2,1.2,1.2
			h3.2h0.6h10.1c0.5,0,0.9-0.4,0.9-0.9v-4.7C223.8,155,223.4,154.6,222.9,154.6z"/>
		<path fill="#FFFFFF" d="M197.6,111.9h-2.5c-1,0-1.8,0.8-1.8,1.8v46.2c0,0.7,0.5,1.2,1.2,1.2h3.2h0.6c0.7,0,1.2-0.6,1.2-1.2v-20.5
			v-5.6v-19.9C199.6,112.8,198.7,111.9,197.6,111.9z"/>
		<path fill="#FFFFFF" d="M124.7,125.6c-3.5-4.7,1.2-7.9,3.3-7.9c5,0,5.2,3.5,5.2,3.5v6c0,0.8,0.7,1.5,1.5,1.5h3.5
			c0.8,0,1.5-0.7,1.5-1.5v-5.7c0-7.5-8.3-10.4-11.3-10.4c-3,0-7.2,0.9-10.3,5.6c-3.1,4.7-0.8,10.2-0.8,10.2s11.1,14.9,14.6,19.6
			c3.5,4.7-1.2,7.9-3.3,7.9c-5,0-5.2-3.5-5.2-3.5v-6c0-0.8-0.7-1.5-1.5-1.5h-3.5c-0.8,0-1.5,0.7-1.5,1.5v5.7
			c0,7.5,8.3,10.4,11.3,10.4c3,0,7.2-0.9,10.3-5.6c3.1-4.7,0.8-10.2,0.8-10.2S128.2,130.4,124.7,125.6z"/>
		<path fill="#FFFFFF" d="M173.6,111.9c-5.3,0-8.1,2.6-8.5,2.9c-0.3-0.3-3.2-2.9-8.5-2.9c-9.7,0-11.2,8.4-11.4,12.6
			c0,0.1,0,0.1,0,0.1v35.2c0,0.7,0.5,1.2,1.2,1.2h3.2h0.6c0.7,0,1.2-0.6,1.2-1.2v-15.7v-5.6v-11.7h0.1c0-5.9,0.7-9,5.1-9
			c2.3,0,4,1.2,5.2,3v39c0,0.7,0.5,1.2,1.2,1.2h3.2h0.6c0.7,0,1.2-0.6,1.2-1.2v-15.7v-5.6v-17.6c1.2-1.8,2.9-3.1,5.3-3.1
			c4.4,0,5.1,3.1,5.1,9v33c0,0.7,0.5,1.2,1.2,1.2h3.2h0.6c0.7,0,1.2-0.6,1.2-1.2v-15.7v-5.6v-11.7
			C184.9,126.9,186.6,111.9,173.6,111.9z"/>
	</g>
</g>
</svg>
