<?xml version="1.0" encoding="UTF-8" standalone="no"?>
<svg width="300px" height="50px" viewBox="0 0 300 50" version="1.1" xmlns="http://www.w3.org/2000/svg" xmlns:xlink="http://www.w3.org/1999/xlink">
    <!-- Generator: sketchtool 41.2 (35397) - http://www.bohemiancoding.com/sketch -->
    <title>B51DC04E-FBFF-471D-979D-86B7DA84DE28</title>
    <desc>Created with sketchtool.</desc>
    <defs>
        <rect id="path-1" x="0" y="0" width="300" height="50" rx="3"></rect>
        <mask id="mask-2" maskContentUnits="userSpaceOnUse" maskUnits="objectBoundingBox" x="0" y="0" width="300" height="50" fill="white">
            <use xlink:href="#path-1"></use>
        </mask>
        <polygon id="path-3" points="113.985802 27.9878261 0.0120634921 27.9878261 0.0120634921 0.131072464 56.9989326 0.131072464 113.985802 0.131072464"></polygon>
    </defs>
    <g id="booking-process" stroke="none" stroke-width="1" fill="none" fill-rule="evenodd">
        <g id="spritesheet-booking" transform="translate(-137.000000, -388.000000)">
            <g id="btn_paypal" transform="translate(137.000000, 388.000000)">
                <use id="Rectangle-4" stroke="#D7D7D7" mask="url(#mask-2)" stroke-width="2" fill="#FFFFFF" xlink:href="#path-1"></use>
                <g id="paypal-seeklogo.com" transform="translate(93.000000, 10.000000)">
                    <g id="Group-6">
                        <mask id="mask-4" fill="white">
                            <use xlink:href="#path-3"></use>
                        </mask>
                        <g id="Clip-2"></g>
                        <path d="M9.94554497,6.68997101 L17.735545,6.68997101 C21.9173545,6.68997101 23.4922434,8.82649275 23.248963,11.9702029 C22.8480529,17.1530435 19.7429101,20.0187826 15.6244339,20.0187826 L13.5450899,20.0187826 C12.9807196,20.0187826 12.6009206,20.3953623 12.4473122,21.4185797 L11.5552169,27.3598551 C11.4973122,27.745971 11.2960529,27.9726087 10.9938624,28 L6.1093545,28 C5.64973545,28 5.48627513,27.6451304 5.60650794,26.8765507 L8.58940741,7.81747826 C8.70883598,7.05376812 9.12301587,6.68997101 9.94554497,6.68997101" id="Fill-1" fill="#009CDE" mask="url(#mask-4)"></path>
                        <path d="M67.1815873,12.1952174 L64.5776825,12.1952174 C64.0380423,12.1952174 63.8188889,12.5935072 63.9903915,13.1003478 L67.2350688,22.6901449 L64.0376402,27.2513043 C63.771037,27.631942 63.9767196,27.9801159 64.3531005,27.9801159 L67.291164,27.9801159 C67.729672,27.9801159 67.9435979,27.8673043 68.1643598,27.5475362 L78.1440847,13.1003478 C78.4517037,12.6553913 78.3065397,12.1897391 77.8026878,12.1891304 L75.0250688,12.1862899 C74.5481587,12.1856812 74.3567513,12.3762029 74.0833122,12.7767246 L69.9204021,18.8711884 L68.068455,12.765971 C67.954455,12.3897971 67.6822222,12.1952174 67.1815873,12.1952174 L67.1815873,12.1952174 Z M54.2125291,21.126 C52.5013228,21.126 51.3084444,19.7487246 51.5573545,18.06 C51.8064656,16.3712754 53.4050794,14.994 55.1164868,14.994 C56.8276931,14.994 58.0203704,16.3712754 57.7714603,18.06 C57.5225503,19.7487246 55.9237354,21.126 54.2125291,21.126 L54.2125291,21.126 Z M56.3690794,22.6712754 C56.6340741,22.4288116 56.9046984,22.3015942 56.865291,22.6018841 L56.7711958,23.3205507 C56.7221376,23.6951014 56.8699153,23.8953623 57.2163386,23.8953623 L59.7937037,23.8953623 C60.2271852,23.8953623 60.4391005,23.7182319 60.5460635,23.0409565 L62.1342222,12.9808406 C62.2140423,12.4754203 62.0930053,12.2272754 61.7124021,12.2272754 L58.8788889,12.2272754 C58.6231429,12.2272754 58.499291,12.3723478 58.4325397,12.765971 L58.3273862,13.3852174 C58.2724974,13.7084348 58.126127,13.7644348 57.9898095,13.4393913 C57.5084762,12.289971 56.2824233,11.7750145 54.5625714,11.8107246 C50.5868466,11.8931014 47.9067407,14.9388116 47.6200317,18.8427826 C47.3982646,21.8627246 49.5431534,24.2342029 52.3688254,24.234 C54.4192169,24.234 55.3364444,23.6169855 56.3690794,22.6712754 L56.3690794,22.6712754 Z M39.0358519,14.6405507 L41.3990899,14.6409565 C42.8762646,14.5847536 43.8586349,13.5522029 43.9573545,11.6889855 C44.0184762,10.5383478 43.2486243,9.7155942 42.0227725,9.72107246 L39.7980635,9.73121739 L39.0358519,14.6405507 L39.0358519,14.6405507 Z M43.7615238,6.33794203 C46.3901587,6.33794203 48.8147196,7.77608696 48.4827725,11.3625217 C48.0895026,15.614058 45.8187513,17.9816812 42.2477566,17.9914203 L39.1325608,17.9914203 C38.6833968,17.9914203 38.4674603,18.3596812 38.3496402,19.1183188 L37.7484762,22.9877971 C37.6577989,23.571942 37.361037,23.8604638 36.9213228,23.8604638 L34.020254,23.8604638 C33.557418,23.8604638 33.3959683,23.562 33.4991111,22.8948696 L35.8973333,7.38428986 C36.0153545,6.6215942 36.3044762,6.33794203 36.8169735,6.33794203 L43.7615238,6.33794203 L43.7615238,6.33794203 Z" id="Fill-3" fill="#003086" mask="url(#mask-4)"></path>
                        <path d="M110.870127,23.9136232 L107.89527,23.9136232 C107.659026,23.9136232 107.494963,23.7267536 107.53055,23.4982899 L110.14672,6.78857971 C110.182508,6.56011594 110.405079,6.37324638 110.641524,6.37324638 L113.61618,6.37324638 C113.852624,6.37324638 114.016688,6.56011594 113.980899,6.78857971 L111.364931,23.4982899 C111.329143,23.7267536 111.106571,23.9136232 110.870127,23.9136232 L110.870127,23.9136232 Z M98.9815556,21.126 C97.2703492,21.126 96.077672,19.7487246 96.326381,18.06 C96.5754921,16.3712754 98.1741058,14.994 99.8855132,14.994 C101.59672,14.994 102.789397,16.3712754 102.540487,18.06 C102.291577,19.7487246 100.692963,21.126 98.9815556,21.126 L98.9815556,21.126 Z M101.138307,22.6712754 C101.403101,22.4288116 101.673725,22.3015942 101.634519,22.6018841 L101.540222,23.3205507 C101.491164,23.6951014 101.638942,23.8953623 101.985566,23.8953623 L104.56273,23.8953623 C104.996212,23.8953623 105.208127,23.7182319 105.31509,23.0409565 L106.903249,12.9808406 C106.983069,12.4754203 106.862032,12.2272754 106.481429,12.2272754 L103.647915,12.2272754 C103.392169,12.2272754 103.268519,12.3723478 103.201566,12.765971 L103.096413,13.3852174 C103.041524,13.7084348 102.895153,13.7644348 102.758836,13.4393913 C102.277704,12.289971 101.05145,11.7750145 99.3315979,11.8107246 C95.355873,11.8931014 92.6757672,14.9388116 92.3890582,18.8427826 C92.1674921,21.8627246 94.3121799,24.2342029 97.1378519,24.234 C99.1884444,24.234 100.105672,23.6169855 101.138307,22.6712754 L101.138307,22.6712754 Z M83.8048783,14.6405507 L86.1681164,14.6409565 C87.645291,14.5847536 88.6278624,13.5522029 88.726582,11.6889855 C88.7875026,10.5383478 88.0176508,9.7155942 86.7917989,9.72107246 L84.5670899,9.73121739 L83.8048783,14.6405507 L83.8048783,14.6405507 Z M88.5305503,6.33794203 C91.1591852,6.33794203 93.5839471,7.77608696 93.252,11.3625217 C92.8585291,15.614058 90.5879788,17.9816812 87.0167831,17.9914203 L83.9015873,17.9914203 C83.4524233,17.9914203 83.2364868,18.3596812 83.1188677,19.1183188 L82.5175026,22.9877971 C82.4268254,23.571942 82.1302646,23.8604638 81.6903492,23.8604638 L78.7892804,23.8604638 C78.3264444,23.8604638 78.1651958,23.562 78.2681376,22.8948696 L80.6663598,7.38428986 C80.784381,6.6215942 81.0735026,6.33794203 81.586,6.33794203 L88.5305503,6.33794203 L88.5305503,6.33794203 Z" id="Fill-4" fill="#009BDD" mask="url(#mask-4)"></path>
                        <path d="M5.07551323,0.131072464 L12.8731534,0.131072464 C15.0693122,0.131072464 17.6740212,0.203101449 19.4165926,1.75385507 C20.5805185,2.78985507 21.1913333,4.44043478 21.0503915,6.21234783 C20.5720741,12.2209855 17.0107302,15.5864638 12.2345926,15.5864638 L8.38895238,15.5864638 C7.73430688,15.5864638 7.30042328,16.0241159 7.11585185,17.2096522 L6.04260317,24.0988696 C5.97303704,24.5458551 5.78102646,24.8092174 5.43058201,24.8410725 L0.627301587,24.8410725 C0.0942962963,24.8410725 -0.0953015873,24.4295942 0.0442328042,23.5384638 L3.50303704,1.43834783 C3.64156614,0.552695652 4.12169312,0.131072464 5.07551323,0.131072464" id="Fill-5" fill="#003087" mask="url(#mask-4)"></path>
                    </g>
                    <path d="M7.22764021,16.5151304 L8.58940741,7.81747826 C8.70883598,7.05356522 9.12301587,6.68997101 9.94554497,6.68997101 L17.735545,6.68997101 C19.0251323,6.68997101 20.0668148,6.89307246 20.8833122,7.26762319 C20.1005926,12.6150145 16.6733545,15.5864638 12.1851323,15.5864638 L8.33929101,15.5864638 C7.83302646,15.5864638 7.45483598,15.8473913 7.22764021,16.5151304" id="Fill-7" fill="#012067"></path>
                </g>
            </g>
        </g>
    </g>
</svg>